<svg width="382" height="63" viewBox="0 0 382 63" fill="none" xmlns="http://www.w3.org/2000/svg">
<path d="M19.456 48.6C15.1467 48.6 12.096 48.0027 10.304 46.808C8.512 45.5707 7.616 43.5653 7.616 40.792C7.616 38.1467 7.616 35.928 7.616 34.136C7.65867 32.3013 7.68 30.5947 7.68 29.016C7.68 26.584 7.59467 24.1307 7.424 21.656C7.25333 19.1813 6.912 16.8133 6.4 14.552C5.888 12.2907 5.12 10.2427 4.096 8.408C3.072 6.57333 1.70667 5.08 0 3.928C2.90133 1.70933 6.22933 0.599998 9.984 0.599998C12.5867 0.599998 14.656 1.34666 16.192 2.84C17.728 4.33333 18.88 6.33867 19.648 8.856C20.416 11.3307 20.9067 14.0827 21.12 17.112C21.376 20.0987 21.504 23.1067 21.504 26.136C21.504 28.0987 21.4613 29.9973 21.376 31.832C21.3333 33.6667 21.312 35.352 21.312 36.888H22.976C24.1707 34.328 25.3013 31.3627 26.368 27.992C27.4773 24.6213 28.3947 21.3147 29.12 18.072C28.9067 15.9813 28.5653 13.9547 28.096 11.992C27.6693 10.0293 27.072 7.93866 26.304 5.72C27.7973 4.568 29.2267 3.71466 30.592 3.16C31.9573 2.56266 33.5787 2.264 35.456 2.264C38.3147 2.264 40.2987 2.84 41.408 3.992C42.56 5.144 43.136 6.72266 43.136 8.728C43.136 10.392 42.8373 12.312 42.24 14.488C41.6427 16.6213 40.9173 18.9467 40.064 21.464C40.064 22.4453 40.0427 23.6613 40 25.112C40 26.52 39.9787 27.992 39.936 29.528C39.936 31.0213 39.9147 32.4293 39.872 33.752C39.872 35.0747 39.872 36.12 39.872 36.888H41.536C42.5173 34.7547 43.5627 32.344 44.672 29.656C45.7813 26.968 46.8267 24.2373 47.808 21.464C48.7893 18.6907 49.5787 16.0667 50.176 13.592C50.816 11.1173 51.136 9.048 51.136 7.384C51.136 6.65866 51.072 6.01866 50.944 5.464C50.816 4.86666 50.6453 4.35466 50.432 3.928C52.0533 2.81866 53.568 1.98666 54.976 1.432C56.4267 0.877332 57.8987 0.599998 59.392 0.599998C61.7387 0.599998 63.3813 1.28267 64.32 2.648C65.3013 3.97066 65.792 5.69866 65.792 7.832C65.792 9.41066 65.4933 11.2667 64.896 13.4C64.2987 15.5333 63.5093 17.7947 62.528 20.184C61.5893 22.5733 60.5867 24.9627 59.52 27.352C58.4533 29.6987 57.408 31.9173 56.384 34.008C55.4027 36.0987 54.592 37.912 53.952 39.448L54.848 42.968C53.184 44.6747 51.2213 46.04 48.96 47.064C46.7413 48.088 43.9893 48.6 40.704 48.6C37.9307 48.6 35.7333 48.344 34.112 47.832C32.5333 47.3627 31.3813 46.616 30.656 45.592C29.12 46.4453 27.4347 47.1493 25.6 47.704C23.7653 48.3013 21.7173 48.6 19.456 48.6ZM78.028 48.6C75.6387 48.6 73.5267 47.9813 71.692 46.744C69.9 45.5067 68.5133 43.7573 67.532 41.496C66.5507 39.2347 66.06 36.5893 66.06 33.56C66.06 30.0187 66.6787 26.7333 67.916 23.704C69.196 20.6747 70.9453 18.0293 73.164 15.768C75.4253 13.5067 78.0707 11.7573 81.1 10.52C84.1293 9.24 87.4147 8.6 90.956 8.6C91.98 8.6 92.8547 8.64266 93.58 8.728C94.348 8.77067 95.1587 8.89867 96.012 9.112C96.268 10.3067 96.4173 11.352 96.46 12.248C97.4413 11.608 98.5293 11.1173 99.724 10.776C100.919 10.392 102.028 10.2 103.052 10.2C106.167 10.2 107.724 11.8853 107.724 15.256C107.724 16.3653 107.511 17.88 107.084 19.8C106.7 21.6773 106.231 23.768 105.676 26.072C105.164 28.3333 104.695 30.6587 104.268 33.048C103.884 35.3947 103.692 37.592 103.692 39.64C103.692 42.4133 104.353 44.3547 105.676 45.464C103.287 47.5547 100.748 48.6 98.06 48.6C95.5853 48.6 93.7507 47.832 92.556 46.296C91.404 44.76 90.828 42.3707 90.828 39.128L90.188 38.808C89.036 41.88 87.372 44.2907 85.196 46.04C83.0627 47.7467 80.6733 48.6 78.028 48.6ZM83.084 36.952C84.748 36.952 86.3693 36.3547 87.948 35.16C89.5267 33.9653 90.8493 32.3227 91.916 30.232C92.0867 28.568 92.2573 27.0107 92.428 25.56C92.6413 24.0667 92.8973 22.488 93.196 20.824C93.5373 19.16 93.9427 17.1973 94.412 14.936C92.236 14.936 90.1667 15.3627 88.204 16.216C86.284 17.0267 84.556 18.1573 83.02 19.608C81.484 21.0587 80.268 22.7227 79.372 24.6C78.5187 26.4347 78.092 28.376 78.092 30.424C78.092 32.5147 78.5187 34.136 79.372 35.288C80.268 36.3973 81.5053 36.952 83.084 36.952ZM121.377 48.6C118.774 48.6 116.918 47.9173 115.809 46.552C114.7 45.1867 114.145 43.224 114.145 40.664C114.145 39.768 114.273 38.4027 114.529 36.568C114.785 34.6907 115.105 32.6213 115.489 30.36C115.916 28.056 116.364 25.752 116.833 23.448C117.302 21.144 117.75 19.096 118.177 17.304L114.849 12.184C117.068 11.2027 119.116 10.3707 120.993 9.688C122.913 8.96267 124.62 8.6 126.113 8.6C127.222 8.6 128.033 8.984 128.545 9.752C129.057 10.52 129.313 11.5013 129.313 12.696C129.313 14.0613 129.078 15.5973 128.609 17.304C128.14 18.968 127.67 20.5467 127.201 22.04L127.841 22.36C129.334 17.9653 131.02 14.5733 132.897 12.184C134.817 9.79467 136.95 8.6 139.297 8.6C140.833 8.6 142.07 8.94133 143.009 9.624C143.948 10.264 144.63 11.0747 145.057 12.056C145.526 12.9947 145.761 13.912 145.761 14.808C145.761 16.216 145.398 17.5813 144.673 18.904C143.99 20.184 142.881 21.2507 141.345 22.104C139.809 22.9147 137.782 23.32 135.265 23.32C134.284 23.32 133.324 23.5333 132.385 23.96C131.446 24.3867 130.593 25.1973 129.825 26.392C129.057 27.544 128.438 29.1867 127.969 31.32C127.542 33.4533 127.329 36.2267 127.329 39.64C127.329 42.2853 127.777 44.2267 128.673 45.464C126.028 47.5547 123.596 48.6 121.377 48.6ZM155.508 48.6C152.82 48.6 150.9 47.9173 149.748 46.552C148.596 45.1867 148.02 43.224 148.02 40.664C148.02 39.768 148.148 38.4027 148.404 36.568C148.66 34.6907 148.98 32.6213 149.364 30.36C149.791 28.056 150.239 25.752 150.708 23.448C151.177 21.144 151.625 19.096 152.052 17.304L148.724 12.184C150.473 11.2027 152.351 10.3707 154.356 9.688C156.404 8.96267 158.473 8.6 160.564 8.6C162.356 8.6 163.679 9.048 164.532 9.944C165.385 10.7973 165.812 11.9707 165.812 13.464C165.812 14.5733 165.663 15.7253 165.364 16.92C165.065 18.1147 164.724 19.1387 164.34 19.992L164.98 20.312C167.497 16.0027 170.143 12.9733 172.916 11.224C175.689 9.47467 178.633 8.6 181.748 8.6C184.009 8.6 185.865 9.176 187.316 10.328C188.767 11.4373 189.492 13.2507 189.492 15.768C189.492 17.048 189.279 18.456 188.852 19.992L189.492 20.312C192.009 16.0027 194.655 12.9733 197.428 11.224C200.201 9.47467 203.145 8.6 206.26 8.6C208.863 8.6 210.804 9.24 212.084 10.52C213.364 11.7573 214.004 13.6987 214.004 16.344C214.004 18.648 213.684 21.1013 213.044 23.704C212.447 26.264 211.828 28.9093 211.188 31.64C210.548 34.328 210.228 36.9947 210.228 39.64C210.228 42.2853 210.676 44.2267 211.572 45.464C209.311 47.5547 206.964 48.6 204.532 48.6C201.844 48.6 199.924 47.9173 198.772 46.552C197.62 45.1867 197.044 43.224 197.044 40.664C197.044 39.256 197.236 37.6987 197.62 35.992C198.004 34.2427 198.452 32.472 198.964 30.68C199.476 28.888 199.924 27.2027 200.308 25.624C200.692 24.0453 200.884 22.68 200.884 21.528C200.884 20.632 200.713 19.928 200.372 19.416C200.073 18.904 199.519 18.648 198.708 18.648C197.556 18.648 196.233 19.16 194.74 20.184C193.289 21.208 191.86 22.6587 190.452 24.536C189.087 26.3707 187.956 28.568 187.06 31.128C186.164 33.688 185.716 36.5253 185.716 39.64C185.716 42.2853 186.164 44.2267 187.06 45.464C184.799 47.5547 182.452 48.6 180.02 48.6C177.332 48.6 175.412 47.9173 174.26 46.552C173.108 45.1867 172.532 43.224 172.532 40.664C172.532 39.256 172.724 37.6987 173.108 35.992C173.492 34.2427 173.94 32.472 174.452 30.68C174.964 28.888 175.412 27.2027 175.796 25.624C176.18 24.0453 176.372 22.68 176.372 21.528C176.372 20.632 176.201 19.928 175.86 19.416C175.561 18.904 175.007 18.648 174.196 18.648C173.044 18.648 171.721 19.16 170.228 20.184C168.777 21.208 167.348 22.6587 165.94 24.536C164.575 26.3707 163.444 28.568 162.548 31.128C161.652 33.688 161.204 36.5253 161.204 39.64C161.204 42.2853 161.652 44.2267 162.548 45.464C160.287 47.5547 157.94 48.6 155.508 48.6ZM237.995 48.6C234.155 48.6 230.998 48.3227 228.523 47.768C226.048 47.256 224.128 46.5307 222.763 45.592C221.398 44.6533 220.438 43.5867 219.883 42.392C219.371 41.1547 219.115 39.8533 219.115 38.488C219.115 37.208 219.307 35.928 219.691 34.648C220.118 33.368 220.843 32.0453 221.867 30.68C222.464 31.9173 223.446 33.112 224.811 34.264C226.176 35.416 227.712 36.3547 229.419 37.08C231.168 37.8053 232.875 38.168 234.539 38.168C236.758 38.168 238.592 37.8267 240.043 37.144C241.536 36.4187 242.603 35.3093 243.243 33.816C235.99 32.8347 230.55 30.8293 226.923 27.8C223.296 24.728 221.483 21.1227 221.483 16.984C221.483 14.552 221.974 12.4187 222.955 10.584C223.979 8.74933 225.323 7.21333 226.987 5.976C228.651 4.696 230.464 3.672 232.427 2.904C234.39 2.09333 236.331 1.51733 238.251 1.176C240.171 0.791999 241.878 0.599998 243.371 0.599998C248.79 0.599998 252.95 1.24 255.851 2.52C258.795 3.75733 260.267 5.95467 260.267 9.112C260.267 10.9467 259.84 12.4827 258.987 13.72C258.176 14.9573 257.088 15.896 255.723 16.536C254.4 17.1333 252.95 17.432 251.371 17.432C249.494 17.432 247.659 16.8987 245.867 15.832C244.075 14.7227 242.816 13.1867 242.091 11.224C240.598 11.224 239.126 11.736 237.675 12.76C236.224 13.7413 235.286 15.1067 234.859 16.856C240.534 18.2213 245.099 19.736 248.555 21.4C252.054 23.064 254.592 24.9413 256.171 27.032C257.75 29.1227 258.539 31.512 258.539 34.2C258.539 37.3147 257.622 39.9387 255.787 42.072C253.952 44.2053 251.478 45.8267 248.363 46.936C245.291 48.0453 241.835 48.6 237.995 48.6ZM275.466 48.6C272.735 48.6 270.794 47.7893 269.642 46.168C268.49 44.5467 267.914 42.072 267.914 38.744C267.914 37.8053 268.02 36.4827 268.234 34.776C268.447 33.0267 268.724 31.0853 269.066 28.952C269.45 26.8187 269.812 24.7067 270.154 22.616C269.258 22.7867 268.383 22.9787 267.53 23.192C266.719 23.4053 265.951 23.64 265.226 23.896C265.055 23.256 264.927 22.616 264.842 21.976C264.799 21.336 264.778 20.8667 264.778 20.568C264.778 18.3493 265.418 16.7493 266.698 15.768C268.02 14.744 269.599 14.232 271.434 14.232C271.434 13.2507 271.306 12.1627 271.05 10.968C270.794 9.77333 270.346 8.45067 269.706 7C271.498 5.67733 273.29 4.568 275.082 3.672C276.874 2.776 278.858 2.328 281.034 2.328C282.911 2.328 284.212 2.69066 284.938 3.416C285.663 4.09866 286.026 5.25067 286.026 6.872C286.026 7.68266 285.94 8.64266 285.77 9.752C285.599 10.8613 285.386 12.0773 285.13 13.4C286.068 13.272 286.964 13.1227 287.818 12.952C288.671 12.7387 289.503 12.5253 290.314 12.312C290.484 12.7813 290.591 13.272 290.634 13.784C290.719 14.2533 290.762 14.7227 290.762 15.192C290.762 16.8987 290.228 18.392 289.162 19.672C288.138 20.9093 286.538 21.528 284.362 21.528H283.402C282.804 24.2587 282.271 27.0533 281.802 29.912C281.332 32.7707 281.098 35.4373 281.098 37.912C281.098 39.576 281.247 41.0693 281.546 42.392C281.887 43.672 282.399 44.696 283.082 45.464C280.692 47.5547 278.154 48.6 275.466 48.6ZM305.903 48.6C303.514 48.6 301.402 47.9813 299.567 46.744C297.775 45.5067 296.388 43.7573 295.407 41.496C294.426 39.2347 293.935 36.5893 293.935 33.56C293.935 30.0187 294.554 26.7333 295.791 23.704C297.071 20.6747 298.82 18.0293 301.039 15.768C303.3 13.5067 305.946 11.7573 308.975 10.52C312.004 9.24 315.29 8.6 318.831 8.6C319.855 8.6 320.73 8.64266 321.455 8.728C322.223 8.77067 323.034 8.89867 323.887 9.112C324.143 10.3067 324.292 11.352 324.335 12.248C325.316 11.608 326.404 11.1173 327.599 10.776C328.794 10.392 329.903 10.2 330.927 10.2C334.042 10.2 335.599 11.8853 335.599 15.256C335.599 16.3653 335.386 17.88 334.959 19.8C334.575 21.6773 334.106 23.768 333.551 26.072C333.039 28.3333 332.57 30.6587 332.143 33.048C331.759 35.3947 331.567 37.592 331.567 39.64C331.567 42.4133 332.228 44.3547 333.551 45.464C331.162 47.5547 328.623 48.6 325.935 48.6C323.46 48.6 321.626 47.832 320.431 46.296C319.279 44.76 318.703 42.3707 318.703 39.128L318.063 38.808C316.911 41.88 315.247 44.2907 313.071 46.04C310.938 47.7467 308.548 48.6 305.903 48.6ZM310.959 36.952C312.623 36.952 314.244 36.3547 315.823 35.16C317.402 33.9653 318.724 32.3227 319.791 30.232C319.962 28.568 320.132 27.0107 320.303 25.56C320.516 24.0667 320.772 22.488 321.071 20.824C321.412 19.16 321.818 17.1973 322.287 14.936C320.111 14.936 318.042 15.3627 316.079 16.216C314.159 17.0267 312.431 18.1573 310.895 19.608C309.359 21.0587 308.143 22.7227 307.247 24.6C306.394 26.4347 305.967 28.376 305.967 30.424C305.967 32.5147 306.394 34.136 307.247 35.288C308.143 36.3973 309.38 36.952 310.959 36.952ZM351.62 62.04C348.676 62.04 346.201 61.4 344.196 60.12C342.191 58.84 341.188 57.048 341.188 54.744C341.188 53.8053 341.38 52.8027 341.764 51.736C342.148 50.6693 342.745 49.5387 343.556 48.344C344.537 49.752 345.711 50.8187 347.076 51.544C348.441 52.312 349.828 52.696 351.236 52.696C352.9 52.696 354.5 52.1413 356.036 51.032C357.572 49.9227 358.809 48.152 359.748 45.72C358.681 46.104 357.679 46.3813 356.74 46.552C355.801 46.7227 354.905 46.808 354.052 46.808C351.833 46.808 350.041 46.232 348.676 45.08C347.311 43.8853 346.521 42.1787 346.308 39.96C346.009 37.144 345.817 34.2213 345.732 31.192C345.647 28.1627 345.476 25.4107 345.22 22.936C344.921 20.0347 344.303 17.624 343.364 15.704C342.425 13.784 341.337 12.3333 340.1 11.352C341.124 10.4133 342.191 9.73066 343.3 9.304C344.452 8.83466 345.903 8.6 347.652 8.6C349.785 8.6 351.513 9.24 352.836 10.52C354.201 11.8 355.247 13.6133 355.972 15.96C356.697 18.264 357.188 20.9733 357.444 24.088C357.743 27.16 357.892 30.5093 357.892 34.136C357.892 34.648 357.871 35.4373 357.828 36.504C357.828 37.5707 357.785 38.6373 357.7 39.704H361.412C362.095 37.8267 362.82 35.8213 363.588 33.688C364.356 31.5547 365.06 29.4 365.7 27.224C366.383 25.0053 366.937 22.8933 367.364 20.888C367.791 18.84 368.004 17.0267 368.004 15.448C368.004 14.5093 367.897 13.72 367.684 13.08C367.513 12.44 367.3 11.864 367.044 11.352C368.537 10.4133 370.009 9.73066 371.46 9.304C372.911 8.83466 374.212 8.6 375.364 8.6C377.327 8.6 378.756 9.26133 379.652 10.584C380.591 11.9067 381.06 13.6347 381.06 15.768C381.06 17.3467 380.825 19.1813 380.356 21.272C379.887 23.32 379.289 25.4533 378.564 27.672C377.881 29.848 377.177 31.9173 376.452 33.88C375.769 35.8427 375.193 37.5067 374.724 38.872C372.676 44.76 370.372 49.3893 367.812 52.76C365.295 56.1307 362.649 58.52 359.876 59.928C357.145 61.336 354.393 62.04 351.62 62.04Z" fill="#007AFF"/>
</svg>
